<svg width="512" height="512" viewBox="0 0 512 512" fill="none" xmlns="http://www.w3.org/2000/svg">
<path d="M333.776 128.512C216.128 60.592 86.3041 65.232 43.7921 138.864C1.28008 212.496 62.1761 327.248 179.824 395.168C297.472 463.088 427.296 458.464 469.808 384.816C512.32 311.184 451.424 196.432 333.776 128.512ZM438.416 352.848C410.24 401.648 310.896 397.04 216.528 342.544C122.16 288.048 68.4801 204.32 96.6561 155.52C124.832 106.72 224.176 111.328 318.56 165.824C412.944 220.32 466.608 304.048 438.432 352.848H438.416ZM395.984 192.512C402.48 167.648 428.8 144.784 445.824 130.512C426.864 125.184 378.144 135.68 365.168 148.24L395.984 192.512ZM140.976 84.192C123.904 77.264 103.44 55.12 95.0401 32.752C84.9921 49.68 85.5041 79.328 90.2401 102.496L140.976 84.192ZM267.856 98.944C251.632 73.44 248.08 42.4 254.672 24.832C236.368 35.104 216.832 73.328 211.264 88.8L267.856 98.944ZM312.4 385.472C333.68 372.608 345.248 338.464 343.552 320.944C357.648 334.704 364.864 374.64 366.144 390.016L312.4 385.472ZM439.584 241.104C463.728 247.056 481.216 243.104 492.4 229.504C492.64 249.184 484.32 270.544 474.368 282.32L439.584 241.104ZM45.1521 251.088C44.6561 275.952 36.3041 291.824 20.2881 299.104C39.2321 304.432 62.0161 301.92 75.9681 295.344L45.1521 251.088ZM190.208 330.096C184.256 305.952 196.208 272.48 209.792 261.296C190.112 261.056 160.768 285.344 148.992 295.312L190.208 330.096ZM284.896 431.504C302.128 449.44 303.44 474.56 297.264 491.024C314.432 481.392 332.752 455.52 337.984 441.008L284.896 431.504ZM222.08 415.12C197.216 415.648 169.264 444.368 158.08 457.968C157.84 438.288 171.232 398.272 177.808 384.304L222.08 415.12ZM438.608 404.512C462.752 408.608 480.24 419.824 491.424 438.08C491.664 418.496 483.344 393.696 473.392 377.76L438.608 404.512ZM72.1921 183.28C89.1681 176.096 119.296 177.296 141.04 187.168C136.176 168.096 114.848 147.504 95.1201 134.464L72.1921 183.28ZM329.856 170.784C311.568 173.056 286.064 189.152 272.176 208.576C266.848 189.616 275.024 161.136 285.584 139.968L329.856 170.784Z" fill="black"/>
<path d="M124 330L170.5 303.153V356.847L124 330Z" fill="#F8F8F4"/>
</svg>
