<svg width="435" height="512" viewBox="0 0 435 512" fill="none" xmlns="http://www.w3.org/2000/svg">
<path d="M394.24 455.68C394.24 466.944 385.024 476.16 373.76 476.16H138.24C126.976 476.16 117.76 466.944 117.76 455.68C117.76 444.416 126.976 435.2 138.24 435.2H373.76C385.024 435.2 394.24 444.416 394.24 455.68Z" stroke="black" stroke-width="32" stroke-miterlimit="10"/>
<path d="M343.04 163.84C343.04 172.288 336.128 179.2 327.68 179.2H184.32C175.872 179.2 168.96 172.288 168.96 163.84C168.96 155.392 175.872 148.48 184.32 148.48H327.68C336.128 148.48 343.04 155.392 343.04 163.84Z" stroke="black" stroke-width="32" stroke-miterlimit="10"/>
<path d="M368.639 419.84C368.639 428.288 361.727 435.2 353.279 435.2H158.719C150.271 435.2 143.359 428.288 143.359 419.84C143.359 411.392 150.271 404.48 158.719 404.48H353.279C361.727 404.48 368.639 411.392 368.639 419.84Z" stroke="black" stroke-width="32" stroke-miterlimit="10"/>
<path d="M158.72 51.2V133.12C158.72 141.568 165.632 148.48 174.08 148.48H337.92C346.368 148.48 353.28 141.568 353.28 133.12V51.2" stroke="#F8F8F4" stroke-width="32" stroke-miterlimit="10"/>
<path d="M353.28 81.92V51.2H317.44V81.92H286.72V51.2H225.28V81.92H194.56V51.2H158.72V81.92" stroke="black" stroke-width="32" stroke-miterlimit="10"/>
<path d="M349.501 404.48C340.295 372.485 317.439 359.112 317.439 179.2H194.559C194.559 359.112 171.704 372.485 162.498 404.48H349.501Z" stroke="black" stroke-width="32" stroke-miterlimit="10"/>
</svg>
