<svg width="309" height="457" viewBox="0 0 309 457" fill="none" xmlns="http://www.w3.org/2000/svg">
<path d="M292.48 420.48C292.48 431.744 283.264 440.96 272 440.96H36.48C25.216 440.96 16 431.744 16 420.48C16 409.216 25.216 400 36.48 400H272C283.264 400 292.48 409.216 292.48 420.48Z" stroke="#F8F8F4" stroke-width="32" stroke-miterlimit="10"/>
<path d="M241.28 128.64C241.28 137.088 234.368 144 225.92 144H82.5602C74.1122 144 67.2002 137.088 67.2002 128.64C67.2002 120.192 74.1122 113.28 82.5602 113.28H225.92C234.368 113.28 241.28 120.192 241.28 128.64Z" stroke="black" stroke-width="32" stroke-miterlimit="10"/>
<path d="M266.88 384.64C266.88 393.088 259.968 400 251.52 400H56.9596C48.5116 400 41.5996 393.088 41.5996 384.64C41.5996 376.192 48.5116 369.28 56.9596 369.28H251.52C259.968 369.28 266.88 376.192 266.88 384.64Z" stroke="#F8F8F4" stroke-width="32" stroke-miterlimit="10"/>
<path d="M57.2402 46.8V102.379C57.2402 108.111 64.1323 112.8 72.556 112.8H235.924C244.348 112.8 251.24 108.111 251.24 102.379V46.8" stroke="black" stroke-width="32" stroke-miterlimit="10"/>
<path d="M251.52 46.72V16H215.68V46.72H184.96V16H123.52V46.72H92.8V16H56.96V46.72" stroke="#F8F8F4" stroke-width="32" stroke-miterlimit="10"/>
<path d="M247.741 369.28C238.535 337.285 215.68 323.912 215.68 144H92.7997C92.7997 323.912 69.944 337.285 60.7383 369.28H247.741Z" stroke="#F8F8F4" stroke-width="32" stroke-miterlimit="10"/>
</svg>
