<svg width="236" height="431" viewBox="0 0 236 431" fill="none" xmlns="http://www.w3.org/2000/svg">
<path d="M235.52 409.6C235.52 420.864 226.304 430.08 215.04 430.08H20.48C9.216 430.08 0 420.864 0 409.6C0 398.336 9.216 389.12 20.48 389.12H215.04C226.304 389.12 235.52 398.336 235.52 409.6Z" fill="#F8F8F4"/>
<path d="M117.76 133.12C154.52 133.12 184.32 103.32 184.32 66.56C184.32 29.7999 154.52 0 117.76 0C81.0001 0 51.2002 29.7999 51.2002 66.56C51.2002 103.32 81.0001 133.12 117.76 133.12Z" fill="#F8F8F4"/>
<path d="M184.32 148.48C184.32 156.928 177.408 163.84 168.96 163.84H66.5602C58.1122 163.84 51.2002 156.928 51.2002 148.48C51.2002 140.032 58.1122 133.12 66.5602 133.12H168.96C177.408 133.12 184.32 140.032 184.32 148.48Z" fill="#F8F8F4"/>
<path d="M209.92 373.76C209.92 382.208 203.008 389.12 194.56 389.12H40.9596C32.5116 389.12 25.5996 382.208 25.5996 373.76C25.5996 365.312 32.5116 358.4 40.9596 358.4H194.56C203.008 358.4 209.92 365.312 209.92 373.76Z" fill="black"/>
<path d="M189.388 358.4C179.466 337.71 158.72 335.247 158.72 163.84H76.7997C76.7997 335.247 56.0534 337.71 46.1309 358.4H189.388Z" fill="#F8F8F4"/>
</svg>
