<svg width="236" height="451" viewBox="0 0 236 451" fill="none" xmlns="http://www.w3.org/2000/svg">
<path d="M235.52 430.08C235.52 441.344 226.304 450.56 215.04 450.56H20.48C9.216 450.56 0 441.344 0 430.08C0 418.816 9.216 409.6 20.48 409.6H215.04C226.304 409.6 235.52 418.816 235.52 430.08Z" fill="black"/>
<path d="M184.32 179.2C184.32 187.648 177.408 194.56 168.96 194.56H66.56C58.112 194.56 51.2 187.648 51.2 179.2C51.2 170.752 58.112 163.84 66.56 163.84H168.96C177.408 163.84 184.32 170.752 184.32 179.2Z" fill="black"/>
<path d="M209.92 394.24C209.92 402.688 203.008 409.6 194.56 409.6H40.96C32.512 409.6 25.6 402.688 25.6 394.24C25.6 385.792 32.512 378.88 40.96 378.88H194.56C203.008 378.88 209.92 385.792 209.92 394.24Z" fill="black"/>
<path d="M117.76 0C117.76 25.6 51.2 81.92 51.2 107.52C51.2 133.12 71.68 163.84 71.68 163.84H163.84C163.84 163.84 184.32 133.12 184.32 107.52C184.32 81.92 117.76 25.6 117.76 0Z" fill="black"/>
<path d="M182.159 378.88C177.336 349.501 165.929 335.805 164.096 194.56H71.424C69.591 335.805 58.1837 349.501 53.3606 378.88H182.159Z" fill="black"/>
<path d="M117.76 35.84C97.28 66.56 97.28 117.76 117.76 148.48C138.24 117.76 138.24 66.56 117.76 35.84Z" fill="#F8F8F4"/>
</svg>
