<svg width="512" height="512" viewBox="0 0 512 512" fill="none" xmlns="http://www.w3.org/2000/svg">
<path d="M199.32 429.856C194.573 439.445 190.848 447.359 191.036 447.641C191.314 448.006 221.939 452.574 259.269 458.254C296.598 463.838 337.833 470.074 350.869 472.034C363.9 473.972 374.697 475.581 374.697 475.472C375.068 475.106 359.243 443.267 358.777 443.267C358.405 443.267 324.52 436.377 283.469 427.907C242.417 419.433 208.626 412.547 208.438 412.547C208.163 412.547 204.067 420.366 199.32 429.856ZM303.857 257.458C293.898 260.347 293.616 260.53 293.898 262.955C293.993 264.345 293.526 266.502 292.689 267.702C291.198 269.933 291.198 269.933 300.324 276.45L309.446 283.062L312.518 277.755C317.359 269.187 317.919 266.583 315.868 260.066L314.099 254.576L303.857 257.458ZM336.624 248.059C327.596 250.656 326.57 251.131 326.942 252.806C327.128 253.904 328.339 258.391 329.548 262.765L331.689 270.774L328.151 277.66C326.194 281.475 323.776 285.849 322.844 287.436L321.076 290.325L324.613 292.666C326.476 293.982 330.851 296.48 334.201 298.345L340.251 301.783L347.421 288.383C351.518 280.842 354.59 273.952 354.59 272.464C354.59 269.574 347.886 244.907 347.143 245.093C346.865 245.093 342.114 246.45 336.624 248.059ZM369.484 238.657C364.084 240.229 359.619 241.546 359.525 241.619C359.43 241.619 361.571 249.438 364.366 258.654C367.16 267.965 369.484 276.058 369.484 276.713C369.484 277.262 366.041 284.346 361.849 292.351C357.568 300.357 354.03 307.152 353.842 307.525C353.47 308.256 358.401 310.597 368.271 314.316L374.043 316.547L383.353 298.952C388.937 288.621 392.752 280.337 392.752 278.754C392.752 277.364 390.052 267.117 386.702 256.134C383.353 245.148 380.652 236.119 380.652 235.932C380.652 235.457 379.443 235.951 369.484 238.657ZM404.391 228.044C399.272 229.799 394.991 231.372 394.897 231.372C394.802 231.372 398.063 242.263 402.067 255.483L409.326 279.5L398.713 299.234C392.846 310.125 388.1 319.249 388.1 319.531C388.1 320.555 409.698 324.278 410.441 323.44C410.907 323.075 415.842 314.038 421.52 303.52C428.783 289.93 431.855 283.322 431.855 281.178C431.855 276.805 415.936 224.485 414.726 224.581C414.167 224.581 409.514 226.179 404.391 228.044ZM274.535 161.67C229.109 169.215 195.129 197.137 183.772 236.236C178.743 253.556 178.743 272.73 183.867 290.413C187.128 301.768 195.224 317.874 202.577 327.555C209.37 336.584 209.93 338.168 212.724 356.413C213.839 363.581 214.399 372.889 214.399 383.407L214.494 399.414L219.147 400.438C221.753 400.987 251.913 407.324 286.171 414.492C320.523 421.664 349.563 427.808 350.866 428.086C352.913 428.634 352.729 428.086 349.003 423.986C343.325 417.659 338.113 408.535 336.809 402.577C334.575 392.897 338.578 386.57 349.191 382.748C352.452 381.615 357.476 379.859 360.454 378.839C363.342 377.815 365.76 376.718 365.76 376.315C365.665 375.95 358.685 372.315 350.123 368.127C326.013 356.304 302.091 341.039 275.097 320.094C258.622 307.338 254.99 303.714 254.99 300.174C254.99 296.359 258.711 292.45 262.343 292.45C264.484 292.45 267.927 294.681 277.049 301.944C313.541 331.267 353.567 355.47 378.702 363.567C384.381 365.432 389.315 366.931 389.593 366.931C389.965 366.931 389.965 362.184 389.688 356.413L389.129 345.8L394.619 341.704C397.691 339.473 400.113 337.425 400.203 337.144C400.203 336.778 396.571 335.937 392.102 334.986C353.563 327.167 308.786 304.175 275.931 275.506L272.299 272.251L275.183 268.887C279.656 263.862 280.776 259.206 278.913 253.622C278.076 251.208 277.704 248.875 278.076 248.502C278.447 248.136 307.121 240.032 341.839 230.443C383.356 218.897 404.86 212.57 404.86 211.733C404.86 209.685 387.082 192.654 379.075 186.974C363.527 175.897 343.331 167.145 324.062 162.958C312.145 160.434 285.985 159.732 274.535 161.67ZM261.315 252.064C262.435 253.381 263.362 255.611 263.362 257.18C263.362 261.09 258.893 265.467 254.983 265.467C251.446 265.467 246.605 261.09 246.605 257.831C246.795 249.921 256.103 246.198 261.315 252.064ZM287.566 37.9602C284.216 38.6916 277.325 41.3248 272.112 43.914C266.994 46.4375 262.059 48.5696 261.221 48.5696C260.384 48.5696 256.009 46.7044 251.54 44.3822C237.389 37.1227 226.964 35.8208 217.282 40.0996C213.095 41.9648 206.669 47.2713 203.879 51.2686L202.11 53.6823H211.138C222.217 53.6823 225.195 55.072 225.195 60.1993C225.195 64.6683 223.148 65.3156 209.835 65.3156C163.943 65.3156 138.718 78.9092 127.451 109.812C123.17 121.636 121.773 129.641 121.213 147.236C120.564 168.18 122.238 182.981 128.566 213.792C133.219 236.602 133.313 237.439 133.407 253.823C133.502 267.322 133.22 271.6 131.915 275.792C129.775 282.682 125.122 289.385 120.187 292.922C116.372 295.518 115.624 295.701 107.156 295.701C99.2432 295.701 97.5686 295.335 93.3771 293.178C89.1048 290.947 84.2638 286.386 81.0979 281.639C79.1409 278.75 80.444 292.622 82.7728 300.346C89.2884 321.012 101.205 335.908 116.099 341.957C120.752 343.822 122.986 344.114 134.437 344.114C149.143 344.114 155.381 342.798 166.088 337.692C169.72 336.01 174.467 332.945 176.795 330.894L180.893 327.171L177.077 318.887C172.143 308.179 167.861 294.684 165.999 283.793C163.67 270.668 164.601 247.489 167.861 235.665C173.262 216.491 183.499 198.618 197.927 183.536C206.678 174.32 213.753 168.641 223.713 162.87C227.344 160.712 230.51 158.865 230.788 158.682C231.066 158.317 230.045 157.183 228.459 155.976C220.641 149.642 203.884 149.273 186.665 155.062C176.146 158.609 171.211 159.162 167.767 157.22C165.627 156.013 161.435 151.171 162.089 150.516C162.276 150.15 164.136 150.882 166.093 151.43C168.139 152.162 170.562 152.747 171.399 152.82C172.331 152.82 176.518 149.638 180.709 145.839C184.99 141.929 190.668 137.274 193.463 135.416C199.141 131.598 207.797 128.621 213.01 128.621C222.132 128.621 233.394 134.765 243.636 145.283L249.865 151.613L256.197 150.114L262.529 148.614L261.969 143.494C260.85 133.536 257.406 125.9 251.728 120.879C245.024 114.921 228.826 110.262 218.307 111.385L213.561 111.86L217.282 110.47C219.328 109.629 224.823 108.313 229.382 107.581C244.742 104.875 256.748 107.581 265.498 115.59C271.548 121.08 275.274 128.343 277.132 138.396L278.529 145.842H295.846C312.881 145.842 327.497 147.415 341.55 150.498L347.599 151.814L352.812 146.23C362.216 136.272 366.403 125.75 367.335 110.39C367.988 99.3124 366.681 90.0087 363.053 79.3956C359.328 68.5961 355.235 62.1705 346.668 53.6091C338.29 45.1355 329.822 40.1106 320.046 37.7847C312.702 36.1024 295.85 36.1024 287.566 37.7847V37.9602Z" fill="black"/>
<path d="M292.776 182.734C292.776 182.913 292.865 185.15 292.773 189.383C292.136 193.438 291.393 197.609 290.934 204.067C290.748 208.381 290.656 214.799 290.833 222.495" stroke="#F8F8F4" stroke-width="5" stroke-linecap="round"/>
<path d="M279.469 198.271C279.648 198.271 281.885 198.271 286.073 198.628C288.116 198.986 289.993 199.701 292.024 200.293C294.055 200.884 296.183 201.331 303.089 202.062" stroke="#F8F8F4" stroke-width="5" stroke-linecap="round"/>
</svg>
