<svg width="512" height="512" viewBox="0 0 512 512" fill="none" xmlns="http://www.w3.org/2000/svg">
<path d="M497.344 114L434.64 181.072L411.36 98.1279L359.264 170.208L334.512 114L292.832 187.728L251.984 116.624L217.616 188.704L168.32 114L148.976 180.224L92.4482 105.024L94.3681 194.048L12.1602 114L82.4322 342.128C94.8322 367.552 154.176 387.2 258.72 389.248C369.344 391.424 436.544 371.728 448.256 342.112L497.328 113.984L497.344 114ZM106.528 331.072C92.7842 331.072 81.6482 319.936 81.6482 306.192C81.6482 292.448 92.7842 281.312 106.528 281.312C120.272 281.312 131.408 292.448 131.408 306.192C131.408 319.936 120.272 331.072 106.528 331.072ZM193.216 355.008C179.472 355.008 168.336 343.872 168.336 330.128C168.336 316.384 179.472 305.248 193.216 305.248C206.96 305.248 218.096 316.384 218.096 330.128C218.096 343.872 206.96 355.008 193.216 355.008ZM324.24 355.008C310.496 355.008 299.36 343.872 299.36 330.128C299.36 316.384 310.496 305.248 324.24 305.248C337.984 305.248 349.12 316.384 349.12 330.128C349.12 343.872 337.984 355.008 324.24 355.008ZM420.576 331.072C406.832 331.072 395.696 319.936 395.696 306.192C395.696 292.448 406.832 281.312 420.576 281.312C434.32 281.312 445.456 292.448 445.456 306.192C445.456 319.936 434.32 331.072 420.576 331.072Z" fill="black"/>
<path d="M256 211L266.103 242.094H298.798L272.347 261.312L282.45 292.406L256 273.188L229.55 292.406L239.653 261.312L213.202 242.094H245.897L256 211Z" fill="#F8F8F4"/>
</svg>
